STARTFONT 2.1
FONT -FontForge-Bitstream Vera Sans Mono-Book-R-Normal-SansMono--10-100-75-75-P-59-FontSpecific-0
SIZE 10 75 75
FONTBOUNDINGBOX 6 9 0 -3
COMMENT "Generated by fontforge, http://fontforge.sourceforge.net"
STARTPROPERTIES 28
FONT_NAME "BitstreamVeraSansMono-Roman"
FONT_ASCENT 8
FONT_DESCENT 2
UNDERLINE_POSITION -213
UNDERLINE_THICKNESS 141
QUAD_WIDTH 10
X_HEIGHT 6
CAP_HEIGHT 4
DEFAULT_CHAR -1
FONTNAME_REGISTRY ""
FAMILY_NAME "Bitstream Vera Sans Mono"
FOUNDRY "FontForge"
WEIGHT_NAME "Book"
SETWIDTH_NAME "Normal"
SLANT "R"
ADD_STYLE_NAME "SansMono-"
PIXEL_SIZE 10
POINT_SIZE 100
RESOLUTION_X 75
RESOLUTION_Y 75
RESOLUTION 75
SPACING "P"
AVERAGE_WIDTH 59
CHARSET_REGISTRY "FontSpecific"
CHARSET_ENCODING "0"
CHARSET_COLLECTIONS "ASCII ISO8859-9 FontSpecific"
FULL_NAME "Bitstream Vera Sans Mono"
COPYRIGHT "Copyright (c) 2003 by Bitstream, Inc. All Rights Reserved."
ENDPROPERTIES
CHARS 269
STARTCHAR .null
ENCODING -1
SWIDTH 0 0
DWIDTH 0 0
BBX 1 1 0 0
BITMAP
00
ENDCHAR
STARTCHAR nonmarkingreturn
ENCODING -1
SWIDTH 602 0
DWIDTH 6 0
BBX 1 1 0 0
BITMAP
00
ENDCHAR
STARTCHAR space
ENCODING -1
SWIDTH 602 0
DWIDTH 6 0
BBX 1 1 0 0
BITMAP
00
ENDCHAR
STARTCHAR exclam
ENCODING -1
SWIDTH 602 0
DWIDTH 6 0
BBX 1 7 2 0
BITMAP
80
80
80
80
00
00
80
ENDCHAR
STARTCHAR quotedbl
ENCODING -1
SWIDTH 602 0
DWIDTH 6 0
BBX 3 3 1 4
BITMAP
20
A0
20
ENDCHAR
STARTCHAR numbersign
ENCODING -1
SWIDTH 602 0
DWIDTH 6 0
BBX 6 7 0 0
BITMAP
28
28
7C
50
F8
50
50
ENDCHAR
STARTCHAR dollar
ENCODING -1
SWIDTH 602 0
DWIDTH 6 0
BBX 4 6 1 0
BITMAP
70
C0
C0
70
50
F0
ENDCHAR
STARTCHAR percent
ENCODING -1
SWIDTH 602 0
DWIDTH 6 0
BBX 6 6 0 0
BITMAP
E0
A0
58
F8
24
18
ENDCHAR
STARTCHAR ampersand
ENCODING -1
SWIDTH 602 0
DWIDTH 6 0
BBX 6 7 0 0
BITMAP
30
40
40
60
94
88
78
ENDCHAR
STARTCHAR quotesingle
ENCODING -1
SWIDTH 602 0
DWIDTH 6 0
BBX 1 1 2 5
BITMAP
80
ENDCHAR
STARTCHAR parenleft
ENCODING -1
SWIDTH 602 0
DWIDTH 6 0
BBX 2 8 2 -1
BITMAP
40
80
80
80
80
80
80
40
ENDCHAR
STARTCHAR parenright
ENCODING -1
SWIDTH 602 0
DWIDTH 6 0
BBX 2 8 2 -1
BITMAP
80
80
40
40
40
40
80
80
ENDCHAR
STARTCHAR asterisk
ENCODING -1
SWIDTH 602 0
DWIDTH 6 0
BBX 4 3 1 3
BITMAP
D0
60
50
ENDCHAR
STARTCHAR plus
ENCODING -1
SWIDTH 602 0
DWIDTH 6 0
BBX 5 3 0 1
BITMAP
20
F8
20
ENDCHAR
STARTCHAR comma
ENCODING -1
SWIDTH 602 0
DWIDTH 6 0
BBX 2 2 2 -1
BITMAP
C0
80
ENDCHAR
STARTCHAR hyphen
ENCODING -1
SWIDTH 602 0
DWIDTH 6 0
BBX 2 1 2 2
BITMAP
C0
ENDCHAR
STARTCHAR period
ENCODING -1
SWIDTH 602 0
DWIDTH 6 0
BBX 2 1 2 0
BITMAP
C0
ENDCHAR
STARTCHAR slash
ENCODING -1
SWIDTH 602 0
DWIDTH 6 0
BBX 4 8 1 -1
BITMAP
10
10
20
20
40
40
80
80
ENDCHAR
STARTCHAR zero
ENCODING -1
SWIDTH 602 0
DWIDTH 6 0
BBX 4 7 1 0
BITMAP
60
90
90
F0
90
90
60
ENDCHAR
STARTCHAR one
ENCODING -1
SWIDTH 602 0
DWIDTH 6 0
BBX 4 7 1 0
BITMAP
60
20
20
20
20
20
F0
ENDCHAR
STARTCHAR two
ENCODING -1
SWIDTH 602 0
DWIDTH 6 0
BBX 4 7 1 0
BITMAP
E0
10
10
30
20
40
F0
ENDCHAR
STARTCHAR three
ENCODING -1
SWIDTH 602 0
DWIDTH 6 0
BBX 4 7 1 0
BITMAP
E0
10
10
60
10
10
E0
ENDCHAR
STARTCHAR four
ENCODING -1
SWIDTH 602 0
DWIDTH 6 0
BBX 4 6 0 1
BITMAP
10
30
30
50
90
70
ENDCHAR
STARTCHAR five
ENCODING -1
SWIDTH 602 0
DWIDTH 6 0
BBX 4 7 1 0
BITMAP
F0
80
80
70
10
10
E0
ENDCHAR
STARTCHAR six
ENCODING -1
SWIDTH 602 0
DWIDTH 6 0
BBX 4 7 1 0
BITMAP
70
80
80
F0
90
90
F0
ENDCHAR
STARTCHAR seven
ENCODING -1
SWIDTH 602 0
DWIDTH 6 0
BBX 4 7 1 0
BITMAP
F0
10
20
20
20
40
40
ENDCHAR
STARTCHAR eight
ENCODING -1
SWIDTH 602 0
DWIDTH 6 0
BBX 4 7 1 0
BITMAP
60
90
90
60
90
90
F0
ENDCHAR
STARTCHAR nine
ENCODING -1
SWIDTH 602 0
DWIDTH 6 0
BBX 4 7 1 0
BITMAP
60
90
90
90
70
10
E0
ENDCHAR
STARTCHAR colon
ENCODING -1
SWIDTH 602 0
DWIDTH 6 0
BBX 2 5 2 0
BITMAP
C0
C0
00
00
C0
ENDCHAR
STARTCHAR semicolon
ENCODING -1
SWIDTH 602 0
DWIDTH 6 0
BBX 2 6 2 -1
BITMAP
C0
C0
00
00
C0
80
ENDCHAR
STARTCHAR less
ENCODING -1
SWIDTH 602 0
DWIDTH 6 0
BBX 5 4 0 1
BITMAP
08
70
C0
38
ENDCHAR
STARTCHAR equal
ENCODING -1
SWIDTH 602 0
DWIDTH 6 0
BBX 5 3 0 1
BITMAP
F8
00
70
ENDCHAR
STARTCHAR greater
ENCODING -1
SWIDTH 602 0
DWIDTH 6 0
BBX 5 4 0 1
BITMAP
C0
38
18
60
ENDCHAR
STARTCHAR question
ENCODING -1
SWIDTH 602 0
DWIDTH 6 0
BBX 3 7 2 0
BITMAP
C0
20
20
40
80
00
80
ENDCHAR
STARTCHAR at
ENCODING -1
SWIDTH 602 0
DWIDTH 6 0
BBX 6 8 0 -2
BITMAP
78
84
BC
A4
A4
98
40
30
ENDCHAR
STARTCHAR A
ENCODING -1
SWIDTH 602 0
DWIDTH 6 0
BBX 6 7 0 0
BITMAP
30
30
30
48
48
78
84
ENDCHAR
STARTCHAR B
ENCODING -1
SWIDTH 602 0
DWIDTH 6 0
BBX 4 7 1 0
BITMAP
E0
90
90
E0
90
90
F0
ENDCHAR
STARTCHAR C
ENCODING -1
SWIDTH 602 0
DWIDTH 6 0
BBX 4 7 1 0
BITMAP
70
80
80
80
80
80
70
ENDCHAR
STARTCHAR D
ENCODING -1
SWIDTH 602 0
DWIDTH 6 0
BBX 4 7 1 0
BITMAP
C0
B0
90
90
90
90
E0
ENDCHAR
STARTCHAR E
ENCODING -1
SWIDTH 602 0
DWIDTH 6 0
BBX 4 7 1 0
BITMAP
F0
80
80
F0
80
80
F0
ENDCHAR
STARTCHAR F
ENCODING -1
SWIDTH 602 0
DWIDTH 6 0
BBX 4 7 1 0
BITMAP
F0
80
80
F0
80
80
80
ENDCHAR
STARTCHAR G
ENCODING -1
SWIDTH 602 0
DWIDTH 6 0
BBX 4 7 1 0
BITMAP
60
80
80
80
90
90
70
ENDCHAR
STARTCHAR H
ENCODING -1
SWIDTH 602 0
DWIDTH 6 0
BBX 4 7 1 0
BITMAP
90
90
90
F0
90
90
90
ENDCHAR
STARTCHAR I
ENCODING -1
SWIDTH 602 0
DWIDTH 6 0
BBX 4 7 1 0
BITMAP
F0
40
40
40
40
40
F0
ENDCHAR
STARTCHAR J
ENCODING -1
SWIDTH 602 0
DWIDTH 6 0
BBX 4 7 1 0
BITMAP
70
10
10
10
10
10
E0
ENDCHAR
STARTCHAR K
ENCODING -1
SWIDTH 602 0
DWIDTH 6 0
BBX 5 7 1 0
BITMAP
98
B0
E0
C0
A0
90
90
ENDCHAR
STARTCHAR L
ENCODING -1
SWIDTH 602 0
DWIDTH 6 0
BBX 4 7 1 0
BITMAP
80
80
80
80
80
80
F0
ENDCHAR
STARTCHAR M
ENCODING -1
SWIDTH 602 0
DWIDTH 6 0
BBX 5 7 0 0
BITMAP
C8
D8
D8
B8
88
88
80
ENDCHAR
STARTCHAR N
ENCODING -1
SWIDTH 602 0
DWIDTH 6 0
BBX 4 7 1 0
BITMAP
90
90
D0
D0
B0
B0
90
ENDCHAR
STARTCHAR O
ENCODING -1
SWIDTH 602 0
DWIDTH 6 0
BBX 4 7 1 0
BITMAP
60
90
90
90
90
90
E0
ENDCHAR
STARTCHAR P
ENCODING -1
SWIDTH 602 0
DWIDTH 6 0
BBX 4 7 1 0
BITMAP
E0
90
90
B0
C0
80
80
ENDCHAR
STARTCHAR Q
ENCODING -1
SWIDTH 602 0
DWIDTH 6 0
BBX 4 8 1 -1
BITMAP
60
90
90
90
90
90
F0
30
ENDCHAR
STARTCHAR R
ENCODING -1
SWIDTH 602 0
DWIDTH 6 0
BBX 5 7 1 0
BITMAP
E0
90
90
F0
B0
90
88
ENDCHAR
STARTCHAR S
ENCODING -1
SWIDTH 602 0
DWIDTH 6 0
BBX 4 7 1 0
BITMAP
60
80
80
E0
10
10
F0
ENDCHAR
STARTCHAR T
ENCODING -1
SWIDTH 602 0
DWIDTH 6 0
BBX 6 7 0 0
BITMAP
FC
20
20
20
20
20
20
ENDCHAR
STARTCHAR U
ENCODING -1
SWIDTH 602 0
DWIDTH 6 0
BBX 4 7 1 0
BITMAP
90
90
90
90
90
90
F0
ENDCHAR
STARTCHAR V
ENCODING -1
SWIDTH 602 0
DWIDTH 6 0
BBX 6 7 0 0
BITMAP
84
48
48
48
50
30
30
ENDCHAR
STARTCHAR W
ENCODING -1
SWIDTH 602 0
DWIDTH 6 0
BBX 6 7 0 0
BITMAP
84
84
B4
B8
B8
48
48
ENDCHAR
STARTCHAR X
ENCODING -1
SWIDTH 602 0
DWIDTH 6 0
BBX 6 7 0 0
BITMAP
44
48
30
30
30
48
88
ENDCHAR
STARTCHAR Y
ENCODING -1
SWIDTH 602 0
DWIDTH 6 0
BBX 6 7 0 0
BITMAP
84
48
30
30
20
20
20
ENDCHAR
STARTCHAR Z
ENCODING -1
SWIDTH 602 0
DWIDTH 6 0
BBX 5 7 1 0
BITMAP
F0
10
20
20
40
80
F8
ENDCHAR
STARTCHAR bracketleft
ENCODING -1
SWIDTH 602 0
DWIDTH 6 0
BBX 2 8 2 -1
BITMAP
C0
80
80
80
80
80
80
80
ENDCHAR
STARTCHAR backslash
ENCODING -1
SWIDTH 602 0
DWIDTH 6 0
BBX 4 8 1 -1
BITMAP
80
80
80
40
40
20
20
10
ENDCHAR
STARTCHAR bracketright
ENCODING -1
SWIDTH 602 0
DWIDTH 6 0
BBX 2 8 2 -1
BITMAP
C0
40
40
40
40
40
40
40
ENDCHAR
STARTCHAR asciicircum
ENCODING -1
SWIDTH 602 0
DWIDTH 6 0
BBX 4 3 1 4
BITMAP
60
A0
90
ENDCHAR
STARTCHAR underscore
ENCODING -1
SWIDTH 602 0
DWIDTH 6 0
BBX 3 1 1 -3
BITMAP
E0
ENDCHAR
STARTCHAR grave
ENCODING -1
SWIDTH 602 0
DWIDTH 6 0
BBX 1 1 2 6
BITMAP
80
ENDCHAR
STARTCHAR a
ENCODING -1
SWIDTH 602 0
DWIDTH 6 0
BBX 4 5 1 0
BITMAP
F0
10
F0
90
F0
ENDCHAR
STARTCHAR b
ENCODING -1
SWIDTH 602 0
DWIDTH 6 0
BBX 4 7 1 0
BITMAP
80
80
F0
90
90
90
F0
ENDCHAR
STARTCHAR c
ENCODING -1
SWIDTH 602 0
DWIDTH 6 0
BBX 4 5 1 0
BITMAP
70
80
80
80
70
ENDCHAR
STARTCHAR d
ENCODING -1
SWIDTH 602 0
DWIDTH 6 0
BBX 4 7 1 0
BITMAP
10
10
F0
90
90
90
F0
ENDCHAR
STARTCHAR e
ENCODING -1
SWIDTH 602 0
DWIDTH 6 0
BBX 4 5 1 0
BITMAP
F0
90
F0
80
F0
ENDCHAR
STARTCHAR f
ENCODING -1
SWIDTH 602 0
DWIDTH 6 0
BBX 4 7 1 0
BITMAP
30
40
F0
40
40
40
40
ENDCHAR
STARTCHAR g
ENCODING -1
SWIDTH 602 0
DWIDTH 6 0
BBX 4 7 1 -2
BITMAP
F0
90
90
90
F0
10
E0
ENDCHAR
STARTCHAR h
ENCODING -1
SWIDTH 602 0
DWIDTH 6 0
BBX 4 7 1 0
BITMAP
80
80
F0
90
90
90
90
ENDCHAR
STARTCHAR i
ENCODING -1
SWIDTH 602 0
DWIDTH 6 0
BBX 4 5 1 0
BITMAP
C0
40
40
40
F0
ENDCHAR
STARTCHAR j
ENCODING -1
SWIDTH 602 0
DWIDTH 6 0
BBX 3 9 1 -2
BITMAP
20
00
E0
20
20
20
20
20
C0
ENDCHAR
STARTCHAR k
ENCODING -1
SWIDTH 602 0
DWIDTH 6 0
BBX 4 7 1 0
BITMAP
80
80
90
A0
E0
90
90
ENDCHAR
STARTCHAR l
ENCODING -1
SWIDTH 602 0
DWIDTH 6 0
BBX 4 7 1 0
BITMAP
C0
40
40
40
40
40
30
ENDCHAR
STARTCHAR m
ENCODING -1
SWIDTH 602 0
DWIDTH 6 0
BBX 5 4 0 1
BITMAP
78
A8
A8
A8
ENDCHAR
STARTCHAR n
ENCODING -1
SWIDTH 602 0
DWIDTH 6 0
BBX 4 5 1 0
BITMAP
F0
90
90
90
90
ENDCHAR
STARTCHAR o
ENCODING -1
SWIDTH 602 0
DWIDTH 6 0
BBX 4 5 1 0
BITMAP
F0
90
90
90
F0
ENDCHAR
STARTCHAR p
ENCODING -1
SWIDTH 602 0
DWIDTH 6 0
BBX 4 7 1 -2
BITMAP
F0
90
90
90
F0
80
80
ENDCHAR
STARTCHAR q
ENCODING -1
SWIDTH 602 0
DWIDTH 6 0
BBX 4 7 1 -2
BITMAP
F0
90
90
90
F0
10
10
ENDCHAR
STARTCHAR r
ENCODING -1
SWIDTH 602 0
DWIDTH 6 0
BBX 4 5 2 0
BITMAP
F0
80
80
80
80
ENDCHAR
STARTCHAR s
ENCODING -1
SWIDTH 602 0
DWIDTH 6 0
BBX 4 5 1 0
BITMAP
F0
80
60
10
F0
ENDCHAR
STARTCHAR t
ENCODING -1
SWIDTH 602 0
DWIDTH 6 0
BBX 4 6 1 0
BITMAP
40
F0
40
40
40
70
ENDCHAR
STARTCHAR u
ENCODING -1
SWIDTH 602 0
DWIDTH 6 0
BBX 4 5 1 0
BITMAP
90
90
90
90
F0
ENDCHAR
STARTCHAR v
ENCODING -1
SWIDTH 602 0
DWIDTH 6 0
BBX 4 5 1 0
BITMAP
90
90
A0
60
60
ENDCHAR
STARTCHAR w
ENCODING -1
SWIDTH 602 0
DWIDTH 6 0
BBX 6 5 0 0
BITMAP
84
84
B8
78
48
ENDCHAR
STARTCHAR x
ENCODING -1
SWIDTH 602 0
DWIDTH 6 0
BBX 4 5 1 0
BITMAP
90
60
60
60
90
ENDCHAR
STARTCHAR y
ENCODING -1
SWIDTH 602 0
DWIDTH 6 0
BBX 4 7 1 -2
BITMAP
90
90
A0
60
60
40
C0
ENDCHAR
STARTCHAR z
ENCODING -1
SWIDTH 602 0
DWIDTH 6 0
BBX 4 5 1 0
BITMAP
F0
20
40
40
F0
ENDCHAR
STARTCHAR braceleft
ENCODING -1
SWIDTH 602 0
DWIDTH 6 0
BBX 4 8 1 -1
BITMAP
30
40
40
40
C0
40
40
20
ENDCHAR
STARTCHAR bar
ENCODING -1
SWIDTH 602 0
DWIDTH 6 0
BBX 1 7 2 -1
BITMAP
80
80
80
80
80
80
80
ENDCHAR
STARTCHAR braceright
ENCODING -1
SWIDTH 602 0
DWIDTH 6 0
BBX 4 8 1 -1
BITMAP
C0
40
40
40
30
40
40
40
ENDCHAR
STARTCHAR asciitilde
ENCODING -1
SWIDTH 602 0
DWIDTH 6 0
BBX 5 1 0 2
BITMAP
F8
ENDCHAR
STARTCHAR nonbreakingspace
ENCODING -1
SWIDTH 602 0
DWIDTH 6 0
BBX 1 1 0 0
BITMAP
00
ENDCHAR
STARTCHAR exclamdown
ENCODING -1
SWIDTH 602 0
DWIDTH 6 0
BBX 1 7 2 0
BITMAP
80
00
00
80
80
80
80
ENDCHAR
STARTCHAR cent
ENCODING -1
SWIDTH 602 0
DWIDTH 6 0
BBX 4 7 1 -1
BITMAP
20
70
A0
A0
A0
70
20
ENDCHAR
STARTCHAR sterling
ENCODING -1
SWIDTH 602 0
DWIDTH 6 0
BBX 4 7 1 0
BITMAP
30
40
40
40
60
40
F0
ENDCHAR
STARTCHAR currency
ENCODING -1
SWIDTH 602 0
DWIDTH 6 0
BBX 4 4 1 1
BITMAP
90
F0
90
F0
ENDCHAR
STARTCHAR yen
ENCODING -1
SWIDTH 602 0
DWIDTH 6 0
BBX 6 7 0 0
BITMAP
84
48
30
30
78
20
20
ENDCHAR
STARTCHAR brokenbar
ENCODING -1
SWIDTH 602 0
DWIDTH 6 0
BBX 1 6 2 -1
BITMAP
80
00
00
00
80
80
ENDCHAR
STARTCHAR section
ENCODING -1
SWIDTH 602 0
DWIDTH 6 0
BBX 4 8 1 -1
BITMAP
60
80
40
B0
90
60
10
E0
ENDCHAR
STARTCHAR dieresis
ENCODING -1
SWIDTH 602 0
DWIDTH 6 0
BBX 2 1 2 6
BITMAP
C0
ENDCHAR
STARTCHAR copyright
ENCODING -1
SWIDTH 602 0
DWIDTH 6 0
BBX 6 6 0 0
BITMAP
78
B4
C4
C4
68
30
ENDCHAR
STARTCHAR ordfeminine
ENCODING -1
SWIDTH 602 0
DWIDTH 6 0
BBX 4 5 1 2
BITMAP
60
10
F0
F0
F0
ENDCHAR
STARTCHAR guillemotleft
ENCODING -1
SWIDTH 602 0
DWIDTH 6 0
BBX 4 3 1 1
BITMAP
B0
A0
50
ENDCHAR
STARTCHAR logicalnot
ENCODING -1
SWIDTH 602 0
DWIDTH 6 0
BBX 5 1 0 3
BITMAP
F8
ENDCHAR
STARTCHAR sfthyphen
ENCODING -1
SWIDTH 602 0
DWIDTH 6 0
BBX 2 1 2 2
BITMAP
C0
ENDCHAR
STARTCHAR registered
ENCODING -1
SWIDTH 602 0
DWIDTH 6 0
BBX 6 6 0 0
BITMAP
78
F4
F4
94
88
70
ENDCHAR
STARTCHAR macron
ENCODING -1
SWIDTH 602 0
DWIDTH 6 0
BBX 2 1 2 6
BITMAP
C0
ENDCHAR
STARTCHAR degree
ENCODING -1
SWIDTH 602 0
DWIDTH 6 0
BBX 3 3 1 4
BITMAP
60
A0
60
ENDCHAR
STARTCHAR plusminus
ENCODING -1
SWIDTH 602 0
DWIDTH 6 0
BBX 5 4 0 0
BITMAP
F8
00
00
F8
ENDCHAR
STARTCHAR twosuperior
ENCODING -1
SWIDTH 602 0
DWIDTH 6 0
BBX 3 5 1 2
BITMAP
60
20
20
C0
40
ENDCHAR
STARTCHAR threesuperior
ENCODING -1
SWIDTH 602 0
DWIDTH 6 0
BBX 2 4 2 3
BITMAP
C0
40
40
40
ENDCHAR
STARTCHAR acute
ENCODING -1
SWIDTH 602 0
DWIDTH 6 0
BBX 1 1 3 6
BITMAP
80
ENDCHAR
STARTCHAR mu
ENCODING -1
SWIDTH 602 0
DWIDTH 6 0
BBX 5 7 1 -2
BITMAP
90
90
90
90
F8
80
80
ENDCHAR
STARTCHAR paragraph
ENCODING -1
SWIDTH 602 0
DWIDTH 6 0
BBX 4 8 1 -1
BITMAP
70
D0
D0
D0
50
50
50
10
ENDCHAR
STARTCHAR periodcentered
ENCODING -1
SWIDTH 602 0
DWIDTH 6 0
BBX 2 2 2 2
BITMAP
C0
C0
ENDCHAR
STARTCHAR cedilla
ENCODING -1
SWIDTH 602 0
DWIDTH 6 0
BBX 2 2 2 -2
BITMAP
40
C0
ENDCHAR
STARTCHAR onesuperior
ENCODING -1
SWIDTH 602 0
DWIDTH 6 0
BBX 1 3 2 4
BITMAP
80
80
80
ENDCHAR
STARTCHAR ordmasculine
ENCODING -1
SWIDTH 602 0
DWIDTH 6 0
BBX 4 5 1 2
BITMAP
60
90
90
60
F0
ENDCHAR
STARTCHAR guillemotright
ENCODING -1
SWIDTH 602 0
DWIDTH 6 0
BBX 4 3 1 1
BITMAP
90
50
A0
ENDCHAR
STARTCHAR onequarter
ENCODING -1
SWIDTH 602 0
DWIDTH 6 0
BBX 5 8 0 -1
BITMAP
40
40
40
18
E8
18
28
18
ENDCHAR
STARTCHAR onehalf
ENCODING -1
SWIDTH 602 0
DWIDTH 6 0
BBX 5 9 0 -2
BITMAP
40
40
40
18
F0
08
08
30
10
ENDCHAR
STARTCHAR threequarters
ENCODING -1
SWIDTH 602 0
DWIDTH 6 0
BBX 5 8 0 -1
BITMAP
20
60
00
68
F8
18
28
18
ENDCHAR
STARTCHAR questiondown
ENCODING -1
SWIDTH 602 0
DWIDTH 6 0
BBX 4 7 1 0
BITMAP
20
00
20
40
80
80
F0
ENDCHAR
STARTCHAR Agrave
ENCODING -1
SWIDTH 602 0
DWIDTH 6 0
BBX 6 9 0 0
BITMAP
20
00
30
30
30
48
48
78
84
ENDCHAR
STARTCHAR Aacute
ENCODING -1
SWIDTH 602 0
DWIDTH 6 0
BBX 6 9 0 0
BITMAP
10
20
30
30
30
48
48
78
84
ENDCHAR
STARTCHAR Acircumflex
ENCODING -1
SWIDTH 602 0
DWIDTH 6 0
BBX 6 9 0 0
BITMAP
20
00
30
30
30
48
48
78
84
ENDCHAR
STARTCHAR Atilde
ENCODING -1
SWIDTH 602 0
DWIDTH 6 0
BBX 6 8 0 0
BITMAP
70
30
30
30
48
48
78
84
ENDCHAR
STARTCHAR Adieresis
ENCODING -1
SWIDTH 602 0
DWIDTH 6 0
BBX 6 8 0 0
BITMAP
30
30
30
30
48
48
78
84
ENDCHAR
STARTCHAR Aring
ENCODING -1
SWIDTH 602 0
DWIDTH 6 0
BBX 6 8 0 0
BITMAP
70
30
30
30
48
48
78
84
ENDCHAR
STARTCHAR AE
ENCODING -1
SWIDTH 602 0
DWIDTH 6 0
BBX 6 7 0 0
BITMAP
3C
50
50
58
50
B0
9C
ENDCHAR
STARTCHAR Ccedilla
ENCODING -1
SWIDTH 602 0
DWIDTH 6 0
BBX 4 9 1 -2
BITMAP
70
80
80
80
80
80
70
00
60
ENDCHAR
STARTCHAR Egrave
ENCODING -1
SWIDTH 602 0
DWIDTH 6 0
BBX 4 9 1 0
BITMAP
40
20
F0
80
80
F0
80
80
F0
ENDCHAR
STARTCHAR Eacute
ENCODING -1
SWIDTH 602 0
DWIDTH 6 0
BBX 4 9 1 0
BITMAP
20
40
F0
80
80
F0
80
80
F0
ENDCHAR
STARTCHAR Ecircumflex
ENCODING -1
SWIDTH 602 0
DWIDTH 6 0
BBX 4 8 1 0
BITMAP
20
F0
80
80
F0
80
80
F0
ENDCHAR
STARTCHAR Edieresis
ENCODING -1
SWIDTH 602 0
DWIDTH 6 0
BBX 4 8 1 0
BITMAP
60
F0
80
80
F0
80
80
F0
ENDCHAR
STARTCHAR Igrave
ENCODING -1
SWIDTH 602 0
DWIDTH 6 0
BBX 4 9 1 0
BITMAP
40
00
F0
40
40
40
40
40
F0
ENDCHAR
STARTCHAR Iacute
ENCODING -1
SWIDTH 602 0
DWIDTH 6 0
BBX 4 9 1 0
BITMAP
20
40
F0
40
40
40
40
40
F0
ENDCHAR
STARTCHAR Icircumflex
ENCODING -1
SWIDTH 602 0
DWIDTH 6 0
BBX 4 9 1 0
BITMAP
40
00
F0
40
40
40
40
40
F0
ENDCHAR
STARTCHAR Idieresis
ENCODING -1
SWIDTH 602 0
DWIDTH 6 0
BBX 4 8 1 0
BITMAP
60
F0
40
40
40
40
40
F0
ENDCHAR
STARTCHAR Eth
ENCODING -1
SWIDTH 602 0
DWIDTH 6 0
BBX 5 7 0 0
BITMAP
60
58
48
E8
48
48
70
ENDCHAR
STARTCHAR Ntilde
ENCODING -1
SWIDTH 602 0
DWIDTH 6 0
BBX 4 8 1 0
BITMAP
E0
90
90
D0
D0
B0
B0
90
ENDCHAR
STARTCHAR Ograve
ENCODING -1
SWIDTH 602 0
DWIDTH 6 0
BBX 4 7 1 0
BITMAP
60
90
90
90
90
90
E0
ENDCHAR
STARTCHAR Oacute
ENCODING -1
SWIDTH 602 0
DWIDTH 6 0
BBX 4 8 1 0
BITMAP
40
60
90
90
90
90
90
E0
ENDCHAR
STARTCHAR Ocircumflex
ENCODING -1
SWIDTH 602 0
DWIDTH 6 0
BBX 4 8 1 0
BITMAP
60
60
90
90
90
90
90
E0
ENDCHAR
STARTCHAR Otilde
ENCODING -1
SWIDTH 602 0
DWIDTH 6 0
BBX 4 8 1 0
BITMAP
E0
60
90
90
90
90
90
E0
ENDCHAR
STARTCHAR Odieresis
ENCODING -1
SWIDTH 602 0
DWIDTH 6 0
BBX 4 8 1 0
BITMAP
60
60
90
90
90
90
90
E0
ENDCHAR
STARTCHAR multiply
ENCODING -1
SWIDTH 602 0
DWIDTH 6 0
BBX 4 4 1 1
BITMAP
90
60
60
90
ENDCHAR
STARTCHAR Oslash
ENCODING -1
SWIDTH 602 0
DWIDTH 6 0
BBX 6 7 0 0
BITMAP
34
48
58
68
68
48
F0
ENDCHAR
STARTCHAR Ugrave
ENCODING -1
SWIDTH 602 0
DWIDTH 6 0
BBX 4 9 1 0
BITMAP
40
00
90
90
90
90
90
90
F0
ENDCHAR
STARTCHAR Uacute
ENCODING -1
SWIDTH 602 0
DWIDTH 6 0
BBX 4 9 1 0
BITMAP
20
40
90
90
90
90
90
90
F0
ENDCHAR
STARTCHAR Ucircumflex
ENCODING -1
SWIDTH 602 0
DWIDTH 6 0
BBX 4 9 1 0
BITMAP
40
00
90
90
90
90
90
90
F0
ENDCHAR
STARTCHAR Udieresis
ENCODING -1
SWIDTH 602 0
DWIDTH 6 0
BBX 4 8 1 0
BITMAP
A0
90
90
90
90
90
90
F0
ENDCHAR
STARTCHAR Yacute
ENCODING -1
SWIDTH 602 0
DWIDTH 6 0
BBX 6 9 0 0
BITMAP
10
20
84
48
30
30
20
20
20
ENDCHAR
STARTCHAR Thorn
ENCODING -1
SWIDTH 602 0
DWIDTH 6 0
BBX 5 7 1 0
BITMAP
80
80
F0
88
90
E0
80
ENDCHAR
STARTCHAR germandbls
ENCODING -1
SWIDTH 602 0
DWIDTH 6 0
BBX 4 7 1 0
BITMAP
E0
90
A0
A0
90
90
F0
ENDCHAR
STARTCHAR agrave
ENCODING -1
SWIDTH 602 0
DWIDTH 6 0
BBX 4 7 1 0
BITMAP
40
00
F0
10
F0
90
F0
ENDCHAR
STARTCHAR aacute
ENCODING -1
SWIDTH 602 0
DWIDTH 6 0
BBX 4 7 1 0
BITMAP
20
00
F0
10
F0
90
F0
ENDCHAR
STARTCHAR acircumflex
ENCODING -1
SWIDTH 602 0
DWIDTH 6 0
BBX 4 7 1 0
BITMAP
60
00
F0
10
F0
90
F0
ENDCHAR
STARTCHAR atilde
ENCODING -1
SWIDTH 602 0
DWIDTH 6 0
BBX 4 7 1 0
BITMAP
C0
20
F0
10
F0
90
F0
ENDCHAR
STARTCHAR adieresis
ENCODING -1
SWIDTH 602 0
DWIDTH 6 0
BBX 4 7 1 0
BITMAP
60
00
F0
10
F0
90
F0
ENDCHAR
STARTCHAR aring
ENCODING -1
SWIDTH 602 0
DWIDTH 6 0
BBX 4 8 1 0
BITMAP
60
A0
40
F0
10
F0
90
F0
ENDCHAR
STARTCHAR ae
ENCODING -1
SWIDTH 602 0
DWIDTH 6 0
BBX 6 5 0 0
BITMAP
78
24
7C
A0
FC
ENDCHAR
STARTCHAR ccedilla
ENCODING -1
SWIDTH 602 0
DWIDTH 6 0
BBX 4 7 1 -2
BITMAP
70
80
80
80
70
00
60
ENDCHAR
STARTCHAR egrave
ENCODING -1
SWIDTH 602 0
DWIDTH 6 0
BBX 4 7 1 0
BITMAP
40
00
F0
90
F0
80
F0
ENDCHAR
STARTCHAR eacute
ENCODING -1
SWIDTH 602 0
DWIDTH 6 0
BBX 4 7 1 0
BITMAP
20
00
F0
90
F0
80
F0
ENDCHAR
STARTCHAR ecircumflex
ENCODING -1
SWIDTH 602 0
DWIDTH 6 0
BBX 4 7 1 0
BITMAP
60
00
F0
90
F0
80
F0
ENDCHAR
STARTCHAR edieresis
ENCODING -1
SWIDTH 602 0
DWIDTH 6 0
BBX 4 7 1 0
BITMAP
60
00
F0
90
F0
80
F0
ENDCHAR
STARTCHAR igrave
ENCODING -1
SWIDTH 602 0
DWIDTH 6 0
BBX 4 7 1 0
BITMAP
40
00
C0
40
40
40
F0
ENDCHAR
STARTCHAR iacute
ENCODING -1
SWIDTH 602 0
DWIDTH 6 0
BBX 4 7 1 0
BITMAP
20
00
C0
40
40
40
F0
ENDCHAR
STARTCHAR icircumflex
ENCODING -1
SWIDTH 602 0
DWIDTH 6 0
BBX 4 7 1 0
BITMAP
60
00
C0
40
40
40
F0
ENDCHAR
STARTCHAR idieresis
ENCODING -1
SWIDTH 602 0
DWIDTH 6 0
BBX 4 7 1 0
BITMAP
60
00
C0
40
40
40
F0
ENDCHAR
STARTCHAR eth
ENCODING -1
SWIDTH 602 0
DWIDTH 6 0
BBX 4 7 1 0
BITMAP
50
A0
70
90
90
90
F0
ENDCHAR
STARTCHAR ntilde
ENCODING -1
SWIDTH 602 0
DWIDTH 6 0
BBX 4 7 1 0
BITMAP
C0
20
F0
90
90
90
90
ENDCHAR
STARTCHAR ograve
ENCODING -1
SWIDTH 602 0
DWIDTH 6 0
BBX 4 7 1 0
BITMAP
40
00
F0
90
90
90
F0
ENDCHAR
STARTCHAR oacute
ENCODING -1
SWIDTH 602 0
DWIDTH 6 0
BBX 4 7 1 0
BITMAP
20
00
F0
90
90
90
F0
ENDCHAR
STARTCHAR ocircumflex
ENCODING -1
SWIDTH 602 0
DWIDTH 6 0
BBX 4 7 1 0
BITMAP
60
00
F0
90
90
90
F0
ENDCHAR
STARTCHAR otilde
ENCODING -1
SWIDTH 602 0
DWIDTH 6 0
BBX 4 7 1 0
BITMAP
C0
20
F0
90
90
90
F0
ENDCHAR
STARTCHAR odieresis
ENCODING -1
SWIDTH 602 0
DWIDTH 6 0
BBX 4 7 1 0
BITMAP
60
00
F0
90
90
90
F0
ENDCHAR
STARTCHAR divide
ENCODING -1
SWIDTH 602 0
DWIDTH 6 0
BBX 5 4 0 1
BITMAP
30
00
F8
30
ENDCHAR
STARTCHAR oslash
ENCODING -1
SWIDTH 602 0
DWIDTH 6 0
BBX 4 5 1 0
BITMAP
F0
90
F0
90
E0
ENDCHAR
STARTCHAR ugrave
ENCODING -1
SWIDTH 602 0
DWIDTH 6 0
BBX 4 7 1 0
BITMAP
40
00
90
90
90
90
F0
ENDCHAR
STARTCHAR uacute
ENCODING -1
SWIDTH 602 0
DWIDTH 6 0
BBX 4 7 1 0
BITMAP
20
00
90
90
90
90
F0
ENDCHAR
STARTCHAR ucircumflex
ENCODING -1
SWIDTH 602 0
DWIDTH 6 0
BBX 4 7 1 0
BITMAP
60
00
90
90
90
90
F0
ENDCHAR
STARTCHAR udieresis
ENCODING -1
SWIDTH 602 0
DWIDTH 6 0
BBX 4 7 1 0
BITMAP
60
00
90
90
90
90
F0
ENDCHAR
STARTCHAR yacute
ENCODING -1
SWIDTH 602 0
DWIDTH 6 0
BBX 4 9 1 -2
BITMAP
20
00
90
90
A0
60
60
40
C0
ENDCHAR
STARTCHAR thorn
ENCODING -1
SWIDTH 602 0
DWIDTH 6 0
BBX 4 9 1 -2
BITMAP
80
80
F0
90
90
90
F0
80
80
ENDCHAR
STARTCHAR ydieresis
ENCODING -1
SWIDTH 602 0
DWIDTH 6 0
BBX 4 9 1 -2
BITMAP
60
00
90
90
A0
60
60
40
C0
ENDCHAR
STARTCHAR Cacute
ENCODING -1
SWIDTH 602 0
DWIDTH 6 0
BBX 4 8 1 0
BITMAP
20
70
80
80
80
80
80
70
ENDCHAR
STARTCHAR cacute
ENCODING -1
SWIDTH 602 0
DWIDTH 6 0
BBX 4 7 1 0
BITMAP
20
00
70
80
80
80
70
ENDCHAR
STARTCHAR Ccaron
ENCODING -1
SWIDTH 602 0
DWIDTH 6 0
BBX 4 8 1 0
BITMAP
20
70
80
80
80
80
80
70
ENDCHAR
STARTCHAR ccaron
ENCODING -1
SWIDTH 602 0
DWIDTH 6 0
BBX 4 7 1 0
BITMAP
40
20
70
80
80
80
70
ENDCHAR
STARTCHAR dcroat
ENCODING -1
SWIDTH 602 0
DWIDTH 6 0
BBX 4 7 1 0
BITMAP
10
10
F0
90
90
90
F0
ENDCHAR
STARTCHAR Gbreve
ENCODING -1
SWIDTH 602 0
DWIDTH 6 0
BBX 4 8 1 0
BITMAP
60
60
80
80
80
90
90
70
ENDCHAR
STARTCHAR gbreve
ENCODING -1
SWIDTH 602 0
DWIDTH 6 0
BBX 4 9 1 -2
BITMAP
60
00
F0
90
90
90
F0
10
E0
ENDCHAR
STARTCHAR Idotaccent
ENCODING -1
SWIDTH 602 0
DWIDTH 6 0
BBX 4 8 1 0
BITMAP
40
F0
40
40
40
40
40
F0
ENDCHAR
STARTCHAR dotlessi
ENCODING -1
SWIDTH 602 0
DWIDTH 6 0
BBX 4 5 1 0
BITMAP
C0
40
40
40
F0
ENDCHAR
STARTCHAR Lslash
ENCODING -1
SWIDTH 602 0
DWIDTH 6 0
BBX 5 7 0 0
BITMAP
40
40
50
60
C0
40
78
ENDCHAR
STARTCHAR lslash
ENCODING -1
SWIDTH 602 0
DWIDTH 6 0
BBX 5 7 0 0
BITMAP
60
20
30
20
E0
20
18
ENDCHAR
STARTCHAR OE
ENCODING -1
SWIDTH 602 0
DWIDTH 6 0
BBX 6 7 0 0
BITMAP
3C
50
90
9C
90
50
7C
ENDCHAR
STARTCHAR oe
ENCODING -1
SWIDTH 602 0
DWIDTH 6 0
BBX 6 6 0 -1
BITMAP
78
A4
9C
A0
B4
48
ENDCHAR
STARTCHAR Scedilla
ENCODING -1
SWIDTH 602 0
DWIDTH 6 0
BBX 4 9 1 -2
BITMAP
60
80
80
E0
10
10
F0
20
60
ENDCHAR
STARTCHAR scedilla
ENCODING -1
SWIDTH 602 0
DWIDTH 6 0
BBX 4 7 1 -2
BITMAP
F0
80
60
10
F0
20
60
ENDCHAR
STARTCHAR Scaron
ENCODING -1
SWIDTH 602 0
DWIDTH 6 0
BBX 4 8 1 0
BITMAP
60
60
80
80
E0
10
10
F0
ENDCHAR
STARTCHAR scaron
ENCODING -1
SWIDTH 602 0
DWIDTH 6 0
BBX 4 7 1 0
BITMAP
60
00
F0
80
60
10
F0
ENDCHAR
STARTCHAR Ydieresis
ENCODING -1
SWIDTH 602 0
DWIDTH 6 0
BBX 6 8 0 0
BITMAP
30
84
48
30
30
20
20
20
ENDCHAR
STARTCHAR Zcaron
ENCODING -1
SWIDTH 602 0
DWIDTH 6 0
BBX 5 9 1 0
BITMAP
80
60
F0
10
20
20
40
80
F8
ENDCHAR
STARTCHAR zcaron
ENCODING -1
SWIDTH 602 0
DWIDTH 6 0
BBX 4 7 1 0
BITMAP
60
00
F0
20
40
40
F0
ENDCHAR
STARTCHAR florin
ENCODING -1
SWIDTH 602 0
DWIDTH 6 0
BBX 6 9 0 -2
BITMAP
0C
10
10
78
20
20
20
20
C0
ENDCHAR
STARTCHAR circumflex
ENCODING -1
SWIDTH 602 0
DWIDTH 6 0
BBX 2 1 2 6
BITMAP
C0
ENDCHAR
STARTCHAR caron
ENCODING -1
SWIDTH 602 0
DWIDTH 6 0
BBX 2 1 2 6
BITMAP
C0
ENDCHAR
STARTCHAR breve
ENCODING -1
SWIDTH 602 0
DWIDTH 6 0
BBX 2 1 2 6
BITMAP
C0
ENDCHAR
STARTCHAR dotaccent
ENCODING -1
SWIDTH 602 0
DWIDTH 6 0
BBX 1 1 2 6
BITMAP
80
ENDCHAR
STARTCHAR ring
ENCODING -1
SWIDTH 602 0
DWIDTH 6 0
BBX 3 3 1 5
BITMAP
60
A0
40
ENDCHAR
STARTCHAR ogonek
ENCODING -1
SWIDTH 602 0
DWIDTH 6 0
BBX 2 2 2 -2
BITMAP
80
C0
ENDCHAR
STARTCHAR tilde
ENCODING -1
SWIDTH 602 0
DWIDTH 6 0
BBX 3 2 1 5
BITMAP
C0
20
ENDCHAR
STARTCHAR hungarumlaut
ENCODING -1
SWIDTH 602 0
DWIDTH 6 0
BBX 1 1 2 6
BITMAP
80
ENDCHAR
STARTCHAR Omega
ENCODING -1
SWIDTH 602 0
DWIDTH 6 0
BBX 6 6 0 0
BITMAP
78
88
88
88
48
FC
ENDCHAR
STARTCHAR pi
ENCODING -1
SWIDTH 602 0
DWIDTH 6 0
BBX 6 5 0 0
BITMAP
FC
48
48
48
4C
ENDCHAR
STARTCHAR endash
ENCODING -1
SWIDTH 602 0
DWIDTH 6 0
BBX 6 1 0 2
BITMAP
FC
ENDCHAR
STARTCHAR emdash
ENCODING -1
SWIDTH 602 0
DWIDTH 6 0
BBX 6 1 0 2
BITMAP
FC
ENDCHAR
STARTCHAR quoteleft
ENCODING -1
SWIDTH 602 0
DWIDTH 6 0
BBX 2 3 2 4
BITMAP
40
80
80
ENDCHAR
STARTCHAR quoteright
ENCODING -1
SWIDTH 602 0
DWIDTH 6 0
BBX 2 3 2 4
BITMAP
40
40
80
ENDCHAR
STARTCHAR quotesinglbase
ENCODING -1
SWIDTH 602 0
DWIDTH 6 0
BBX 2 2 2 -1
BITMAP
C0
80
ENDCHAR
STARTCHAR quotedblleft
ENCODING -1
SWIDTH 602 0
DWIDTH 6 0
BBX 4 3 1 4
BITMAP
50
A0
A0
ENDCHAR
STARTCHAR quotedblright
ENCODING -1
SWIDTH 602 0
DWIDTH 6 0
BBX 4 3 1 4
BITMAP
D0
90
A0
ENDCHAR
STARTCHAR quotedblbase
ENCODING -1
SWIDTH 602 0
DWIDTH 6 0
BBX 4 2 1 -1
BITMAP
D0
A0
ENDCHAR
STARTCHAR dagger
ENCODING -1
SWIDTH 602 0
DWIDTH 6 0
BBX 4 6 1 0
BITMAP
40
F0
40
40
40
40
ENDCHAR
STARTCHAR daggerdbl
ENCODING -1
SWIDTH 602 0
DWIDTH 6 0
BBX 4 6 1 0
BITMAP
40
F0
40
40
F0
40
ENDCHAR
STARTCHAR bullet
ENCODING -1
SWIDTH 602 0
DWIDTH 6 0
BBX 2 3 2 2
BITMAP
C0
C0
C0
ENDCHAR
STARTCHAR ellipsis
ENCODING -1
SWIDTH 602 0
DWIDTH 6 0
BBX 6 1 0 0
BITMAP
FC
ENDCHAR
STARTCHAR perthousand
ENCODING -1
SWIDTH 602 0
DWIDTH 6 0
BBX 6 6 0 0
BITMAP
E0
A8
70
C8
B4
FC
ENDCHAR
STARTCHAR guilsinglleft
ENCODING -1
SWIDTH 602 0
DWIDTH 6 0
BBX 2 3 2 1
BITMAP
80
80
40
ENDCHAR
STARTCHAR guilsinglright
ENCODING -1
SWIDTH 602 0
DWIDTH 6 0
BBX 2 3 2 1
BITMAP
80
40
80
ENDCHAR
STARTCHAR Euro
ENCODING -1
SWIDTH 602 0
DWIDTH 6 0
BBX 5 7 0 0
BITMAP
18
60
40
60
E0
40
38
ENDCHAR
STARTCHAR trademark
ENCODING -1
SWIDTH 602 0
DWIDTH 6 0
BBX 5 3 0 4
BITMAP
E8
B8
20
ENDCHAR
STARTCHAR partialdiff
ENCODING -1
SWIDTH 602 0
DWIDTH 6 0
BBX 4 6 1 0
BITMAP
60
10
70
90
90
A0
ENDCHAR
STARTCHAR Delta
ENCODING -1
SWIDTH 602 0
DWIDTH 6 0
BBX 6 6 0 0
BITMAP
30
30
48
48
88
FC
ENDCHAR
STARTCHAR product
ENCODING -1
SWIDTH 602 0
DWIDTH 6 0
BBX 5 9 0 -2
BITMAP
78
88
88
88
88
88
88
88
08
ENDCHAR
STARTCHAR summation
ENCODING -1
SWIDTH 602 0
DWIDTH 6 0
BBX 4 9 1 -2
BITMAP
F0
80
40
40
20
40
40
80
F0
ENDCHAR
STARTCHAR minus
ENCODING -1
SWIDTH 602 0
DWIDTH 6 0
BBX 5 1 0 2
BITMAP
F8
ENDCHAR
STARTCHAR fraction
ENCODING -1
SWIDTH 602 0
DWIDTH 6 0
BBX 4 8 1 -1
BITMAP
10
10
20
20
40
40
80
80
ENDCHAR
STARTCHAR periodcentered
ENCODING -1
SWIDTH 602 0
DWIDTH 6 0
BBX 2 2 2 2
BITMAP
C0
C0
ENDCHAR
STARTCHAR radical
ENCODING -1
SWIDTH 602 0
DWIDTH 6 0
BBX 6 8 0 0
BITMAP
04
08
08
08
D0
50
30
20
ENDCHAR
STARTCHAR infinity
ENCODING -1
SWIDTH 602 0
DWIDTH 6 0
BBX 6 3 0 1
BITMAP
FC
A4
58
ENDCHAR
STARTCHAR integral
ENCODING -1
SWIDTH 602 0
DWIDTH 6 0
BBX 4 9 1 -2
BITMAP
30
20
40
40
40
40
40
40
80
ENDCHAR
STARTCHAR approxequal
ENCODING -1
SWIDTH 602 0
DWIDTH 6 0
BBX 5 3 0 1
BITMAP
F8
60
98
ENDCHAR
STARTCHAR notequal
ENCODING -1
SWIDTH 602 0
DWIDTH 6 0
BBX 5 4 0 1
BITMAP
08
F8
20
50
ENDCHAR
STARTCHAR lessequal
ENCODING -1
SWIDTH 602 0
DWIDTH 6 0
BBX 5 5 0 0
BITMAP
08
70
60
18
F8
ENDCHAR
STARTCHAR greaterequal
ENCODING -1
SWIDTH 602 0
DWIDTH 6 0
BBX 5 5 0 0
BITMAP
C0
38
38
C0
F8
ENDCHAR
STARTCHAR lozenge
ENCODING -1
SWIDTH 602 0
DWIDTH 6 0
BBX 5 8 0 -1
BITMAP
20
30
50
48
88
48
50
30
ENDCHAR
STARTCHAR fi
ENCODING -1
SWIDTH 602 0
DWIDTH 6 0
BBX 5 7 0 0
BITMAP
78
40
F8
48
48
48
48
ENDCHAR
STARTCHAR fl
ENCODING -1
SWIDTH 602 0
DWIDTH 6 0
BBX 5 7 0 0
BITMAP
78
48
E8
48
48
48
48
ENDCHAR
STARTCHAR .notdef
ENCODING -1
SWIDTH 602 0
DWIDTH 6 0
BBX 5 8 0 -2
BITMAP
F8
88
88
88
88
88
88
F8
ENDCHAR
STARTCHAR c6459
ENCODING -1
SWIDTH 602 0
DWIDTH 6 0
BBX 2 1 2 6
BITMAP
C0
ENDCHAR
STARTCHAR c6460
ENCODING -1
SWIDTH 602 0
DWIDTH 6 0
BBX 1 1 3 6
BITMAP
80
ENDCHAR
STARTCHAR c6461
ENCODING -1
SWIDTH 602 0
DWIDTH 6 0
BBX 2 2 2 5
BITMAP
80
40
ENDCHAR
STARTCHAR c6468
ENCODING -1
SWIDTH 602 0
DWIDTH 6 0
BBX 1 1 2 6
BITMAP
80
ENDCHAR
STARTCHAR c6470
ENCODING -1
SWIDTH 602 0
DWIDTH 6 0
BBX 2 1 2 6
BITMAP
C0
ENDCHAR
STARTCHAR c6472
ENCODING -1
SWIDTH 602 0
DWIDTH 6 0
BBX 2 1 2 6
BITMAP
C0
ENDCHAR
STARTCHAR c6477
ENCODING -1
SWIDTH 602 0
DWIDTH 6 0
BBX 5 2 0 2
BITMAP
18
E0
ENDCHAR
STARTCHAR c6478
ENCODING -1
SWIDTH 602 0
DWIDTH 6 0
BBX 3 4 1 3
BITMAP
20
60
A0
60
ENDCHAR
STARTCHAR c6475
ENCODING -1
SWIDTH 602 0
DWIDTH 6 0
BBX 1 1 2 5
BITMAP
80
ENDCHAR
STARTCHAR c6476
ENCODING -1
SWIDTH 602 0
DWIDTH 6 0
BBX 1 1 2 6
BITMAP
80
ENDCHAR
ENDFONT
